<?xml version="1.0" encoding="utf-8"?>
<!-- Generator: Adobe Illustrator 27.9.6, SVG Export Plug-In . SVG Version: 9.03 Build 54986)  -->
<svg version="1.1" xmlns="http://www.w3.org/2000/svg" xmlns:xlink="http://www.w3.org/1999/xlink" x="0px" y="0px"
	 viewBox="0 0 234.8 232.2" style="enable-background:new 0 0 234.8 232.2;" xml:space="preserve">
<style type="text/css">
	.st0{display:none;fill:#FFFFFF;}
	.st1{display:none;fill:none;}
	.st2{fill:#F7941D;stroke:#FFFFFF;stroke-linejoin:round;}
	.st3{fill:#92278F;stroke:#FFFFFF;stroke-linejoin:round;}
	.st4{fill:#939598;stroke:#FFFFFF;stroke-linejoin:round;}
	.st5{display:none;}
	.st6{display:inline;fill:none;}
	.st7{display:inline;}
	.st8{fill:#F7941D;}
	.st9{fill:#92278F;}
	.st10{fill:#939598;}
	.st11{fill:#FFFFFF;}
</style>
<g id="Layer_1">
	<rect x="-207.4" y="-80.8" class="st0" width="650" height="400"/>
	<rect x="-197.4" y="-33.8" class="st1" width="630" height="300"/>
	<rect x="-197.4" y="-33.8" class="st1" width="630" height="300"/>
	<g>
		<g transform="translate(10,47) scale(1 1)">
			<path class="st2" d="M107.6-44.8c63,0,114,51,114,114c0,63-51,114-114,114c-11.9,0-23.8-1.9-35.1-5.5l35.1-108.5l0,0L107.6-44.8z
				"/>
			<path class="st3" d="M72.4,177.6c-11.3-3.7-22-9.1-31.7-16.1l66.9-92.3l0,0L72.4,177.6z"/>
			<path class="st4" d="M40.6,161.4c-50.9-37-62.2-108.3-25.2-159.2c21.4-29.5,55.6-47,92.1-47l0.2,114l0,0L40.6,161.4z"/>
		</g>
		<g transform="translate(10,47) scale(1 1)">
		</g>
	</g>
	
		<text transform="matrix(1 0 0 1 78.449 -56.8261)" style="display:none;fill:#333333;enable-background:new    ; font-family:'Roboto-Regular'; font-size:18px;">Chart title</text>
	<g transform="translate(213,359)" class="st5">
		<rect x="-207.4" y="-80.8" class="st6" width="223" height="26"/>
		<g class="st7">
			<g>
				<g transform="translate(8,3)">
					<text transform="matrix(1 0 0 1 -186.3913 -65.8261)" style="fill:#333333; font-family:'Roboto-Bold'; font-size:12px;">Item 1</text>
					<path class="st8" d="M-199.4-76.8L-199.4-76.8c3.3,0,6,2.7,6,6l0,0c0,3.3-2.7,6-6,6l0,0c-3.3,0-6-2.7-6-6l0,0
						C-205.4-74.1-202.7-76.8-199.4-76.8z"/>
				</g>
				<g transform="translate(83.78125,3)">
					<text transform="matrix(1 0 0 1 -186.3913 -65.8261)" style="fill:#333333; font-family:'Roboto-Bold'; font-size:12px;">Item 2</text>
					<path class="st9" d="M-199.4-76.8L-199.4-76.8c3.3,0,6,2.7,6,6l0,0c0,3.3-2.7,6-6,6l0,0c-3.3,0-6-2.7-6-6l0,0
						C-205.4-74.1-202.7-76.8-199.4-76.8z"/>
				</g>
				<g transform="translate(159.5625,3)">
					<text transform="matrix(1 0 0 1 -186.3913 -65.8261)" style="fill:#333333; font-family:'Roboto-Bold'; font-size:12px;">Item 3</text>
					<path class="st10" d="M-199.4-76.8L-199.4-76.8c3.3,0,6,2.7,6,6l0,0c0,3.3-2.7,6-6,6l0,0c-3.3,0-6-2.7-6-6l0,0
						C-205.4-74.1-202.7-76.8-199.4-76.8z"/>
				</g>
			</g>
		</g>
	</g>
	
		<text transform="matrix(1 0 0 1 368.4925 314.1739)" style="display:none;fill:#999999;enable-background:new    ; font-family:'Roboto-Regular'; font-size:9px;">Highcharts.com</text>
</g>
<g id="Layer_2">
	<g>
		<path class="st11" d="M169.3,111.5h-4.2v1.6c0.2-0.2,0.4-0.3,0.7-0.4c0.3-0.1,0.6-0.2,1-0.2c0.7,0,1.2,0.2,1.7,0.5
			c0.5,0.3,0.8,0.7,1,1.2c0.2,0.5,0.3,1.1,0.3,1.7c0,1.1-0.3,2-0.9,2.6c-0.6,0.6-1.5,0.9-2.6,0.9c-0.8,0-1.4-0.1-2-0.4
			s-1-0.6-1.3-1.1c-0.3-0.5-0.5-1-0.5-1.6h2.7c0,0.2,0.1,0.4,0.3,0.6c0.2,0.2,0.4,0.2,0.7,0.2c0.3,0,0.6-0.1,0.7-0.3
			s0.3-0.5,0.3-0.9c0-0.4-0.1-0.6-0.3-0.8s-0.4-0.3-0.8-0.3c-0.3,0-0.5,0.1-0.6,0.2s-0.2,0.3-0.3,0.5h-2.7v-6.2h6.7V111.5z"/>
		<path class="st11" d="M178.5,111.5h-4.2v1.6c0.2-0.2,0.4-0.3,0.7-0.4c0.3-0.1,0.6-0.2,1-0.2c0.7,0,1.2,0.2,1.7,0.5
			c0.5,0.3,0.8,0.7,1,1.2c0.2,0.5,0.3,1.1,0.3,1.7c0,1.1-0.3,2-0.9,2.6c-0.6,0.6-1.5,0.9-2.6,0.9c-0.8,0-1.4-0.1-2-0.4
			s-1-0.6-1.3-1.1c-0.3-0.5-0.5-1-0.5-1.6h2.7c0,0.2,0.1,0.4,0.3,0.6c0.2,0.2,0.4,0.2,0.7,0.2c0.3,0,0.6-0.1,0.7-0.3
			s0.3-0.5,0.3-0.9c0-0.4-0.1-0.6-0.3-0.8s-0.4-0.3-0.8-0.3c-0.3,0-0.5,0.1-0.6,0.2s-0.2,0.3-0.3,0.5h-2.7v-6.2h6.7V111.5z"/>
		<path class="st11" d="M180.7,109.9c0.4-0.4,1-0.6,1.8-0.6c0.7,0,1.3,0.2,1.8,0.6s0.7,1,0.7,1.8c0,0.8-0.2,1.4-0.7,1.8
			c-0.4,0.4-1,0.6-1.8,0.6s-1.3-0.2-1.8-0.6c-0.5-0.4-0.7-1-0.7-1.8C180,110.9,180.2,110.3,180.7,109.9z M181.8,111.7
			c0,0.6,0.2,0.8,0.6,0.8c0.2,0,0.3-0.1,0.4-0.2c0.1-0.1,0.2-0.3,0.2-0.6c0-0.3-0.1-0.5-0.2-0.6s-0.3-0.2-0.4-0.2
			C182,110.9,181.8,111.2,181.8,111.7z M189.9,109.4l-5.3,9.9H182l5.3-9.9H189.9z M187.8,115.2c0.5-0.4,1-0.6,1.8-0.6
			s1.3,0.2,1.7,0.6c0.4,0.4,0.7,1,0.7,1.8c0,0.8-0.2,1.4-0.7,1.8s-1,0.6-1.7,0.6s-1.3-0.2-1.8-0.6s-0.7-1-0.7-1.8
			C187.1,116.2,187.3,115.6,187.8,115.2z M188.9,117c0,0.6,0.2,0.9,0.6,0.9c0.2,0,0.3-0.1,0.4-0.2s0.2-0.4,0.2-0.6
			c0-0.3-0.1-0.5-0.2-0.6c-0.1-0.1-0.2-0.2-0.4-0.2C189.1,116.2,188.9,116.5,188.9,117z"/>
	</g>
	<g>
		<path class="st11" d="M42.3,117.5v-2.3l4.3-6.1h3v6h1.1v2.4h-1.1v1.7h-2.8v-1.7H42.3z M47.1,112.2l-1.9,2.9h1.9V112.2z"/>
		<path class="st11" d="M52.8,110.1c0.7-0.9,1.7-1.4,3.1-1.4c1.4,0,2.4,0.5,3.1,1.4c0.7,0.9,1,2.2,1,3.8c0,1.6-0.3,2.9-1,3.8
			c-0.7,0.9-1.7,1.4-3.1,1.4c-1.4,0-2.4-0.5-3.1-1.4c-0.6-0.9-1-2.2-1-3.8C51.8,112.3,52.1,111,52.8,110.1z M57,112
			c-0.2-0.4-0.5-0.7-1.1-0.7c-0.6,0-0.9,0.2-1.1,0.7c-0.2,0.4-0.3,1.1-0.3,1.9c0,0.9,0.1,1.5,0.3,2s0.5,0.7,1.1,0.7
			c0.6,0,0.9-0.2,1.1-0.7s0.3-1.1,0.3-2C57.2,113.1,57.1,112.4,57,112z"/>
		<path class="st11" d="M61.5,109.8c0.4-0.4,1-0.6,1.8-0.6c0.7,0,1.3,0.2,1.8,0.6s0.7,1,0.7,1.8c0,0.8-0.2,1.4-0.7,1.8
			c-0.4,0.4-1,0.6-1.8,0.6s-1.3-0.2-1.8-0.6c-0.5-0.4-0.7-1-0.7-1.8C60.8,110.8,61.1,110.2,61.5,109.8z M62.7,111.6
			c0,0.6,0.2,0.8,0.6,0.8c0.2,0,0.3-0.1,0.4-0.2c0.1-0.1,0.2-0.3,0.2-0.6c0-0.3-0.1-0.5-0.2-0.6s-0.3-0.2-0.4-0.2
			C62.9,110.7,62.7,111,62.7,111.6z M70.8,109.3l-5.3,9.9h-2.6l5.3-9.9H70.8z M68.6,115.1c0.5-0.4,1-0.6,1.8-0.6s1.3,0.2,1.7,0.6
			c0.4,0.4,0.7,1,0.7,1.8c0,0.8-0.2,1.4-0.7,1.8s-1,0.6-1.7,0.6s-1.3-0.2-1.8-0.6s-0.7-1-0.7-1.8C67.9,116.1,68.1,115.5,68.6,115.1z
			 M69.7,116.9c0,0.6,0.2,0.9,0.6,0.9c0.2,0,0.3-0.1,0.4-0.2s0.2-0.4,0.2-0.6c0-0.3-0.1-0.5-0.2-0.6c-0.1-0.1-0.2-0.2-0.4-0.2
			C69.9,116,69.7,116.3,69.7,116.9z"/>
	</g>
	<g>
		<path class="st11" d="M69.6,200.6h-4.2v1.6c0.2-0.2,0.4-0.3,0.7-0.4c0.3-0.1,0.6-0.2,1-0.2c0.7,0,1.2,0.2,1.7,0.5
			c0.5,0.3,0.8,0.7,1,1.2c0.2,0.5,0.3,1.1,0.3,1.7c0,1.1-0.3,2-0.9,2.6c-0.6,0.6-1.5,0.9-2.6,0.9c-0.8,0-1.4-0.1-2-0.4
			c-0.6-0.3-1-0.6-1.3-1.1c-0.3-0.5-0.5-1-0.5-1.6h2.7c0,0.2,0.1,0.4,0.3,0.6c0.2,0.2,0.4,0.2,0.7,0.2c0.3,0,0.6-0.1,0.7-0.3
			c0.2-0.2,0.3-0.5,0.3-0.9c0-0.4-0.1-0.6-0.3-0.8s-0.4-0.3-0.8-0.3c-0.3,0-0.5,0.1-0.6,0.2s-0.2,0.3-0.3,0.5h-2.7v-6.2h6.7V200.6z"
			/>
		<path class="st11" d="M71.8,199c0.4-0.4,1-0.6,1.8-0.6c0.7,0,1.3,0.2,1.8,0.6s0.7,1,0.7,1.8c0,0.8-0.2,1.4-0.7,1.8s-1,0.6-1.8,0.6
			s-1.3-0.2-1.8-0.6c-0.5-0.4-0.7-1-0.7-1.8C71.1,200,71.4,199.4,71.8,199z M73,200.8c0,0.6,0.2,0.8,0.6,0.8c0.2,0,0.3-0.1,0.4-0.2
			c0.1-0.1,0.2-0.3,0.2-0.6c0-0.3-0.1-0.5-0.2-0.6c-0.1-0.1-0.3-0.2-0.4-0.2C73.2,200,73,200.2,73,200.8z M81.1,198.5l-5.3,9.9h-2.6
			l5.3-9.9H81.1z M78.9,204.3c0.5-0.4,1-0.6,1.8-0.6s1.3,0.2,1.7,0.6s0.7,1,0.7,1.8c0,0.8-0.2,1.4-0.7,1.8s-1,0.6-1.7,0.6
			s-1.3-0.2-1.8-0.6s-0.7-1-0.7-1.8C78.2,205.3,78.4,204.7,78.9,204.3z M80.1,206.1c0,0.6,0.2,0.9,0.6,0.9c0.2,0,0.3-0.1,0.4-0.2
			s0.2-0.4,0.2-0.6c0-0.3-0.1-0.5-0.2-0.6c-0.1-0.1-0.2-0.2-0.4-0.2C80.3,205.3,80.1,205.5,80.1,206.1z"/>
	</g>
</g>
</svg>
